<svg width="360" height="220" viewBox="0 0 360 220" fill="none" xmlns="http://www.w3.org/2000/svg">
  <defs>
    <linearGradient id="bg" x1="88" y1="36" x2="262" y2="196" gradientUnits="userSpaceOnUse">
      <stop stop-color="#F8FAFC"/>
      <stop offset="1" stop-color="#EEF2FF"/>
    </linearGradient>
    <filter id="s" x="-20" y="-20" width="400" height="280" color-interpolation-filters="sRGB">
      <feDropShadow dx="0" dy="12" stdDeviation="16" flood-color="#0F172A" flood-opacity="0.10"/>
    </filter>
  </defs>

  <g filter="url(#s)">
    <rect x="108" y="28" width="144" height="164" rx="22" fill="url(#bg)" stroke="#E2E8F0"/>
    <rect x="132" y="56" width="96" height="10" rx="5" fill="#94A3B8" opacity="0.55"/>
    <rect x="132" y="78" width="82" height="10" rx="5" fill="#94A3B8" opacity="0.35"/>
    <rect x="132" y="104" width="92" height="10" rx="5" fill="#94A3B8" opacity="0.30"/>
    <rect x="132" y="126" width="70" height="10" rx="5" fill="#94A3B8" opacity="0.25"/>

    <!-- small tick -->
    <path d="M125 106l8 8 14-16" stroke="#3B82F6" stroke-width="4" stroke-linecap="round" stroke-linejoin="round" opacity="0.9"/>

    <!-- magnifier -->
    <g>
      <circle cx="236" cy="140" r="26" fill="#FFFFFF" stroke="#CBD5E1" stroke-width="2"/>
      <circle cx="236" cy="140" r="14" fill="#EEF2FF" stroke="#93C5FD" stroke-width="2"/>
      <path d="M252 156l18 18" stroke="#64748B" stroke-width="5" stroke-linecap="round"/>
    </g>
  </g>

  <!-- sparkles -->
  <g opacity="0.35">
    <path d="M86 70l4 12 12 4-12 4-4 12-4-12-12-4 12-4 4-12z" fill="#10B981"/>
    <path d="M280 62l3 9 9 3-9 3-3 9-3-9-9-3 9-3 3-9z" fill="#10B981"/>
  </g>
</svg>

