<svg width="720" height="360" viewBox="0 0 720 360" fill="none" xmlns="http://www.w3.org/2000/svg">
  <defs>
    <linearGradient id="g1" x1="140" y1="40" x2="520" y2="320" gradientUnits="userSpaceOnUse">
      <stop stop-color="#A7F3D0"/>
      <stop offset="1" stop-color="#34D399"/>
    </linearGradient>
    <linearGradient id="g2" x1="480" y1="88" x2="660" y2="300" gradientUnits="userSpaceOnUse">
      <stop stop-color="#D1FAE5"/>
      <stop offset="1" stop-color="#6EE7B7"/>
    </linearGradient>
    <filter id="shadow" x="-20" y="-20" width="800" height="460" color-interpolation-filters="sRGB">
      <feDropShadow dx="0" dy="14" stdDeviation="18" flood-color="#10B981" flood-opacity="0.18"/>
    </filter>
  </defs>

  <!-- subtle sparkles -->
  <g opacity="0.35">
    <path d="M88 96l6 18 18 6-18 6-6 18-6-18-18-6 18-6 6-18z" fill="#34D399"/>
    <path d="M642 72l4 12 12 4-12 4-4 12-4-12-12-4 12-4 4-12z" fill="#34D399"/>
    <path d="M612 214l5 15 15 5-15 5-5 15-5-15-15-5 15-5 5-15z" fill="#34D399"/>
  </g>

  <g filter="url(#shadow)">
    <!-- boxes stack -->
    <g>
      <rect x="330" y="178" width="128" height="88" rx="18" fill="url(#g1)"/>
      <rect x="350" y="194" width="88" height="12" rx="6" fill="#065F46" opacity="0.18"/>
      <rect x="302" y="142" width="120" height="82" rx="18" fill="url(#g1)"/>
      <rect x="322" y="158" width="80" height="12" rx="6" fill="#065F46" opacity="0.18"/>
      <rect x="372" y="108" width="110" height="76" rx="18" fill="url(#g1)"/>
      <rect x="392" y="124" width="70" height="12" rx="6" fill="#065F46" opacity="0.18"/>
    </g>

    <!-- clipboard -->
    <g>
      <rect x="488" y="96" width="156" height="214" rx="24" fill="url(#g2)"/>
      <rect x="520" y="78" width="92" height="44" rx="14" fill="#10B981"/>
      <rect x="538" y="86" width="56" height="10" rx="5" fill="#ECFDF5" opacity="0.95"/>

      <!-- checklist lines -->
      <g opacity="0.95" fill="#065F46">
        <rect x="522" y="142" width="92" height="10" rx="5" opacity="0.28"/>
        <rect x="522" y="172" width="102" height="10" rx="5" opacity="0.22"/>
        <rect x="522" y="202" width="88" height="10" rx="5" opacity="0.22"/>
        <rect x="522" y="232" width="110" height="10" rx="5" opacity="0.22"/>
      </g>

      <!-- check marks -->
      <g fill="#10B981">
        <circle cx="506" cy="147" r="12"/>
        <path d="M501 147l3 3 7-8" stroke="#ECFDF5" stroke-width="3.6" stroke-linecap="round" stroke-linejoin="round"/>
        <circle cx="506" cy="177" r="12"/>
        <path d="M501 177l3 3 7-8" stroke="#ECFDF5" stroke-width="3.6" stroke-linecap="round" stroke-linejoin="round"/>
        <circle cx="506" cy="207" r="12"/>
        <path d="M501 207l3 3 7-8" stroke="#ECFDF5" stroke-width="3.6" stroke-linecap="round" stroke-linejoin="round"/>
        <circle cx="506" cy="237" r="12"/>
        <path d="M501 237l3 3 7-8" stroke="#ECFDF5" stroke-width="3.6" stroke-linecap="round" stroke-linejoin="round"/>
      </g>
    </g>
  </g>
</svg>

